<svg xmlns="http://www.w3.org/2000/svg" xmlns:xlink="http://www.w3.org/1999/xlink" viewBox="0 0 172.35 106.88"><defs><style>.cls-1{fill:url(#Unbenannter_Verlauf_9);}.cls-2,.cls-3{fill:#fff;}.cls-2{stroke:#fff;stroke-linecap:round;stroke-linejoin:round;stroke-width:3px;}.cls-3{opacity:0.25;}</style><linearGradient id="Unbenannter_Verlauf_9" x1="12.08" y1="68.44" x2="171.21" y2="37.89" gradientUnits="userSpaceOnUse"><stop offset="0" stop-color="#e53019"/><stop offset="0.46" stop-color="#e94d3c"/><stop offset="1" stop-color="#ed6b61"/></linearGradient></defs><g id="Ebene_2" data-name="Ebene 2"><g id="Ebene_1-2" data-name="Ebene 1"><path class="cls-1" d="M170.85,9.49v87.9a9.27,9.27,0,0,1-9,9.49H18.62a9.28,9.28,0,0,1-9-9.49V77.81a201.49,201.49,0,0,0,20.81,15.4S67.91,69.64,72.07,51a24,24,0,0,0,1.2-7.48A24.22,24.22,0,0,0,30.39,28a24.21,24.21,0,0,0-18.67-8.78c-.72,0-1.44,0-2.14.1V9.49a9.28,9.28,0,0,1,9-9.49h143.2A9.27,9.27,0,0,1,170.85,9.49Z"/><path class="cls-2" d="M170.85,53.26v.85H140.29l-4.6,16.43a.42.42,0,0,1-.44.31.43.43,0,0,1-.39-.38L132.2,45.7l-7,50.16a.47.47,0,0,1-.43.37.44.44,0,0,1-.42-.39l-6.65-81.48-10.53,58.4a.44.44,0,0,1-.83,0l-4.79-26.32L98,53.86a.43.43,0,0,1-.39.25H1.5v-.85H97.38l3.94-8.39a.44.44,0,0,1,.45-.24.41.41,0,0,1,.36.35l4.6,25.31L117.42,11a.42.42,0,0,1,.84.05l6.61,80.88,7-49.76a.42.42,0,0,1,.43-.36.42.42,0,0,1,.42.38l2.79,26,4.08-14.61a.42.42,0,0,1,.41-.31Z"/><rect class="cls-3" x="9.58" y="11.12" width="161.27" height="16.22"/></g></g></svg>