<svg xmlns="http://www.w3.org/2000/svg" viewBox="0 0 158.23 106.39"><defs><style>.cls-1{fill:#e53019;}.cls-2,.cls-4{fill:#fff;}.cls-2{opacity:0.25;}.cls-3{fill:#ec665e;}</style></defs><g id="Ebene_2" data-name="Ebene 2"><g id="Ebene_1-2" data-name="Ebene 1"><path class="cls-1" d="M156.84,8.78V48.43a3.21,3.21,0,0,1-3.21,3.21h-25.4A1.77,1.77,0,0,0,126.52,53l-1.83,6.55-1.82-16.84a1.78,1.78,0,0,0-3.54-.09l-4.71,33.65-5.1-62.4a1.74,1.74,0,0,0-1.61-1.62A1.78,1.78,0,0,0,106,13.64L97.45,61,94.57,45.14A1.75,1.75,0,0,0,93,43.66a1.78,1.78,0,0,0-1.82,1l-3.27,7H3.21A3.21,3.21,0,0,1,0,48.43V8.79A8.79,8.79,0,0,1,8.79,0H148.06A8.78,8.78,0,0,1,156.84,8.78Z"/><rect class="cls-2" y="9.38" width="156.84" height="15.03"/><path class="cls-3" d="M156.84,58.41v39.2a8.78,8.78,0,0,1-8.78,8.78H8.79A8.79,8.79,0,0,1,0,97.61V58.41a3.2,3.2,0,0,1,3.2-3.2H89.05a1.83,1.83,0,0,0,1.62-1l1.38-3,3.66,20.1a1.79,1.79,0,0,0,3.51,0l7.86-43.63,5.3,64.88a1.82,1.82,0,0,0,1.77,1.63,1.84,1.84,0,0,0,1.78-1.54l4.93-35.33,1.27,11.76a1.81,1.81,0,0,0,1.68,1.6,1.72,1.72,0,0,0,1.8-1.31l4-14.19h24A3.2,3.2,0,0,1,156.84,58.41Z"/><path class="cls-4" d="M156.84,51.64v3.57a1.39,1.39,0,0,0,1.39-1.39V53A1.39,1.39,0,0,0,156.84,51.64Z"/><rect class="cls-2" x="9.78" y="76.22" width="24.65" height="16.61" rx="2.22"/></g></g></svg>